<?xml version="1.0" encoding="UTF-8" standalone="no"?>
<!-- Created with Inkscape (http://www.inkscape.org/) -->

<svg
   version="1.1"
   id="svg2"
   width="582"
   height="80"
   viewBox="153 390 582 80"
   sodipodi:docname="tsu_logo_basic_horizontal_2line.ai"
   xmlns:inkscape="http://www.inkscape.org/namespaces/inkscape"
   xmlns:sodipodi="http://sodipodi.sourceforge.net/DTD/sodipodi-0.dtd"
   xmlns="http://www.w3.org/2000/svg"
   xmlns:svg="http://www.w3.org/2000/svg">
  <defs
     id="defs6">
    <clipPath
       clipPathUnits="userSpaceOnUse"
       id="clipPath20">
      <path
         d="M 0,792 H 612 V 0 H 0 Z"
         id="path18" />
    </clipPath>
  </defs>
  <sodipodi:namedview
     id="namedview4"
     pagecolor="#ffffff"
     bordercolor="#000000"
     borderopacity="0.25"
     inkscape:showpageshadow="2"
     inkscape:pageopacity="0.0"
     inkscape:pagecheckerboard="0"
     inkscape:deskcolor="#d1d1d1" />
  <g
     id="g8"
     inkscape:groupmode="layer"
     inkscape:label="tsu_logo_basic_horizontal_2line"
     transform="matrix(1.3333333,0,0,-1.3333333,0,1056)">
    <g
       id="g10"
       transform="translate(178.5425,332.3027)">
      <path
         d="M 0,0 H 10.9 V -2.172 H 6.612 V -13.223 H 4.288 v 11.051 l -4.288,0 z"
         style="fill:#fff;fill-opacity:1;fill-rule:nonzero;stroke:none"
         id="path12" />
    </g>
    <g
       id="g14">
      <g
         id="g16"
         clip-path="url(#clipPath20)">
        <g
           id="g22"
           transform="translate(193.3535,320.8936)">
          <path
             d="M 0,0 C 1.341,0 2.324,0.964 2.324,2.437 2.324,3.872 1.322,4.854 0,4.854 -1.285,4.854 -2.305,3.91 -2.305,2.437 -2.305,1.021 -1.322,0 0,0 m 0,6.896 c 2.815,0 4.628,-1.909 4.628,-4.459 0,-2.55 -1.813,-4.458 -4.628,-4.458 -2.814,0 -4.628,1.908 -4.628,4.458 0,2.55 1.814,4.459 4.628,4.459"
             style="fill:#fff;fill-opacity:1;fill-rule:nonzero;stroke:none"
             id="path24" />
        </g>
        <g
           id="g26"
           transform="translate(212.6855,319.0801)">
          <path
             d="m 0,0 h -2.173 v 4.987 c 0,1.058 -0.434,1.624 -1.454,1.624 -0.812,0 -1.455,-0.396 -1.757,-0.982 0,-0.132 0.019,-0.434 0.019,-0.623 V 0 h -2.173 v 5.139 c 0,0.886 -0.491,1.472 -1.416,1.472 -0.775,0 -1.398,-0.34 -1.776,-0.906 V 0 h -2.172 v 8.5 h 2.172 V 7.557 c 0.605,0.679 1.606,1.095 2.664,1.095 1.303,0 2.172,-0.586 2.474,-1.361 0.605,0.794 1.549,1.361 2.872,1.361 C -1.171,8.652 0,7.877 0,5.554 Z"
             style="fill:#fff;fill-opacity:1;fill-rule:nonzero;stroke:none"
             id="path28" />
        </g>
        <g
           id="g30"
           transform="translate(214.5747,325.2012)">
          <path
             d="m 0,0 c 0,1.662 1.36,2.588 3.117,2.588 1.643,0 2.701,-0.586 3.23,-1.077 L 5.535,-0.039 C 5.025,0.358 4.137,0.773 3.23,0.773 2.569,0.773 2.172,0.415 2.172,0.037 c 0,-1.416 4.591,-0.642 4.591,-3.646 0,-1.681 -1.361,-2.72 -3.438,-2.72 -1.568,0 -3.155,0.85 -3.552,1.454 l 1.058,1.418 c 0.51,-0.549 1.794,-1.059 2.645,-1.059 0.623,0 1.114,0.265 1.114,0.793 C 4.59,-2.343 0,-3.099 0,0"
             style="fill:#fff;fill-opacity:1;fill-rule:nonzero;stroke:none"
             id="path32" />
        </g>
        <g
           id="g34"
           transform="translate(227.9351,323.6895)">
          <path
             d="M 0,0 3.57,-4.609 H 0.774 l -3.362,4.439 3.041,4.061 h 2.739 z m -4.798,8.613 h 2.172 V -4.61 h -2.172 z"
             style="fill:#fff;fill-opacity:1;fill-rule:nonzero;stroke:none"
             id="path36" />
        </g>
        <g
           id="g38"
           transform="translate(236.7959,328.8652)">
          <path
             d="m 0,0 c 0,1.983 1.549,3.646 4.118,3.646 1.625,0 2.985,-0.548 3.778,-1.417 L 6.649,0.491 C 6.007,1.115 5.365,1.474 4.307,1.474 3.155,1.474 2.456,0.888 2.456,0.02 c 0,-2.741 5.988,-1.872 5.988,-6.272 0,-2.23 -1.946,-3.741 -4.421,-3.741 -1.7,0 -3.683,0.737 -4.325,2.078 L 1.02,-6.328 C 1.794,-7.33 3.042,-7.82 4.062,-7.82 c 1.095,0 1.926,0.547 1.926,1.549 C 5.988,-3.664 0,-4.307 0,0"
             style="fill:#fff;fill-opacity:1;fill-rule:nonzero;stroke:none"
             id="path40" />
        </g>
        <g
           id="g42"
           transform="translate(247.1494,329.9414)">
          <path
             d="m 0,0 h 2.172 v -2.361 h 2.74 V -4.4 h -2.74 v -3.099 c 0,-0.925 0.303,-1.53 1.02,-1.53 0.586,0 1.002,0.264 1.304,0.492 l 0.661,-1.682 C 4.647,-10.635 3.74,-11.051 2.645,-11.051 0.718,-11.051 0,-9.804 0,-7.631 Z"
             style="fill:#fff;fill-opacity:1;fill-rule:nonzero;stroke:none"
             id="path44" />
        </g>
        <g
           id="g46"
           transform="translate(258.4331,321.5742)">
          <path
             d="m 0,0 v 0.868 c -0.378,0.284 -0.869,0.416 -1.492,0.416 -0.718,0 -1.361,-0.341 -1.361,-1.057 0,-0.643 0.529,-1.002 1.209,-1.002 0.907,0 1.379,0.396 1.644,0.775 m -4.364,5.402 c 0.737,0.434 1.889,0.813 3.004,0.813 2.512,0 3.4,-1.285 3.4,-3.533 V -2.494 H 0.151 v 0.982 c -0.453,-0.642 -1.36,-1.095 -2.512,-1.095 -1.549,0 -2.664,0.962 -2.664,2.607 0,1.869 1.379,2.758 3.098,2.758 C -1.171,2.758 -0.416,2.512 0,2.209 0.057,3.627 -0.321,4.4 -1.587,4.4 -2.569,4.4 -3.192,4.099 -3.816,3.815 Z"
             style="fill:#fff;fill-opacity:1;fill-rule:nonzero;stroke:none"
             id="path48" />
        </g>
        <g
           id="g50"
           transform="translate(262.522,329.9414)">
          <path
             d="m 0,0 h 2.172 v -2.361 h 2.74 V -4.4 h -2.74 v -3.099 c 0,-0.925 0.303,-1.53 1.02,-1.53 0.586,0 1.002,0.264 1.304,0.492 l 0.661,-1.682 C 4.647,-10.635 3.74,-11.051 2.645,-11.051 0.718,-11.051 0,-9.804 0,-7.631 Z"
             style="fill:#fff;fill-opacity:1;fill-rule:nonzero;stroke:none"
             id="path52" />
        </g>
        <g
           id="g54"
           transform="translate(270.8101,324.124)">
          <path
             d="M 0,0 H 4.175 C 4.193,1.038 3.476,1.851 2.229,1.851 0.925,1.851 0.227,1.114 0,0 m 5.648,-4.194 c -0.85,-0.717 -2.059,-1.058 -3.249,-1.058 -2.739,0 -4.571,1.776 -4.571,4.458 0,2.475 1.7,4.459 4.495,4.459 2.192,0 4.024,-1.568 4.024,-3.949 0,-0.528 -0.038,-0.85 -0.132,-1.17 H 0.076 c 0.188,-1.285 1.209,-1.984 2.549,-1.984 1.04,0 1.909,0.377 2.4,0.775 z"
             style="fill:#fff;fill-opacity:1;fill-rule:nonzero;stroke:none"
             id="path56" />
        </g>
        <g
           id="g58"
           transform="translate(294.2358,324.5586)">
          <path
             d="m 0,0 c 0,-4.043 -2.475,-5.687 -5.251,-5.687 -3.288,0 -5.63,1.947 -5.63,5.819 v 7.612 h 2.323 V 0.623 c 0,-2.475 1.02,-4.137 3.307,-4.137 2.002,0 2.946,1.416 2.946,3.987 V 7.744 H 0 Z"
             style="fill:#fff;fill-opacity:1;fill-rule:nonzero;stroke:none"
             id="path60" />
        </g>
        <g
           id="g62"
           transform="translate(296.8784,327.5801)">
          <path
             d="m 0,0 h 2.172 v -0.85 c 0.511,0.548 1.417,1.002 2.437,1.002 2.078,0 3.495,-1.002 3.495,-3.665 V -8.5 H 5.932 v 4.609 c 0,1.36 -0.7,2.002 -1.909,2.002 -0.736,0 -1.34,-0.301 -1.851,-0.812 l 0,-5.799 H 0 Z"
             style="fill:#fff;fill-opacity:1;fill-rule:nonzero;stroke:none"
             id="path64" />
        </g>
        <path
           d="m 307.298,327.58 h 2.172 v -8.5 h -2.172 z m 1.133,4.326 c 0.624,0 1.247,-0.49 1.247,-1.265 0,-0.87 -0.623,-1.36 -1.247,-1.36 -0.737,0 -1.36,0.49 -1.36,1.36 0,0.775 0.623,1.265 1.36,1.265"
           style="fill:#fff;fill-opacity:1;fill-rule:nonzero;stroke:none"
           id="path66" />
        <g
           id="g68"
           transform="translate(316.3525,319.043)">
          <path
             d="m 0,0 h -1.605 l -3.911,8.537 h 2.588 l 1.569,-3.644 c 0.226,-0.511 0.491,-1.266 0.641,-1.928 0.152,0.642 0.397,1.417 0.624,1.965 l 1.473,3.607 h 2.286 z"
             style="fill:#fff;fill-opacity:1;fill-rule:nonzero;stroke:none"
             id="path70" />
        </g>
        <g
           id="g72"
           transform="translate(322.5342,324.124)">
          <path
             d="M 0,0 H 4.175 C 4.193,1.038 3.476,1.851 2.229,1.851 0.926,1.851 0.227,1.114 0,0 m 5.648,-4.194 c -0.85,-0.717 -2.059,-1.058 -3.249,-1.058 -2.739,0 -4.572,1.776 -4.572,4.458 0,2.475 1.7,4.459 4.496,4.459 2.192,0 4.024,-1.568 4.024,-3.949 0,-0.528 -0.037,-0.85 -0.132,-1.17 h -6.14 c 0.19,-1.285 1.209,-1.984 2.551,-1.984 1.039,0 1.907,0.377 2.398,0.775 z"
             style="fill:#fff;fill-opacity:1;fill-rule:nonzero;stroke:none"
             id="path74" />
        </g>
        <g
           id="g76"
           transform="translate(330.6172,327.5801)">
          <path
             d="m 0,0 h 2.173 v -0.83 c 0.396,0.547 0.925,0.982 1.945,0.982 0.699,0 1.039,-0.113 1.322,-0.322 L 4.666,-2.209 c -0.416,0.245 -0.643,0.32 -1.096,0.32 -0.756,0 -1.152,-0.415 -1.397,-0.906 V -8.5 H 0 Z"
             style="fill:#fff;fill-opacity:1;fill-rule:nonzero;stroke:none"
             id="path78" />
        </g>
        <g
           id="g80"
           transform="translate(336.916,325.2012)">
          <path
             d="m 0,0 c 0,1.662 1.36,2.588 3.117,2.588 1.643,0 2.701,-0.586 3.23,-1.077 L 5.535,-0.039 C 5.024,0.358 4.137,0.773 3.23,0.773 2.569,0.773 2.172,0.415 2.172,0.037 c 0,-1.416 4.591,-0.642 4.591,-3.646 0,-1.681 -1.361,-2.72 -3.439,-2.72 -1.567,0 -3.154,0.85 -3.551,1.454 l 1.058,1.418 c 0.51,-0.549 1.795,-1.059 2.645,-1.059 0.623,0 1.114,0.265 1.114,0.793 C 4.59,-2.343 0,-3.099 0,0"
             style="fill:#fff;fill-opacity:1;fill-rule:nonzero;stroke:none"
             id="path82" />
        </g>
        <path
           d="m 345.614,327.58 h 2.172 v -8.5 h -2.172 z m 1.133,4.326 c 0.624,0 1.247,-0.49 1.247,-1.265 0,-0.87 -0.623,-1.36 -1.247,-1.36 -0.736,0 -1.359,0.49 -1.359,1.36 0,0.775 0.623,1.265 1.359,1.265"
           style="fill:#fff;fill-opacity:1;fill-rule:nonzero;stroke:none"
           id="path84" />
        <g
           id="g86"
           transform="translate(350.1074,329.9414)">
          <path
             d="M 0,0 H 2.172 V -2.361 H 4.911 V -4.4 H 2.172 v -3.099 c 0,-0.925 0.303,-1.53 1.02,-1.53 0.585,0 1.001,0.264 1.303,0.492 l 0.661,-1.682 C 4.646,-10.635 3.74,-11.051 2.645,-11.051 0.718,-11.051 0,-9.804 0,-7.631 Z"
             style="fill:#fff;fill-opacity:1;fill-rule:nonzero;stroke:none"
             id="path88" />
        </g>
        <g
           id="g90"
           transform="translate(362.1025,319.0801)">
          <path
             d="m 0,0 c -1.246,-3.041 -2.04,-3.778 -3.286,-3.778 -0.776,0 -1.342,0.302 -1.833,0.661 l 0.699,1.643 c 0.227,-0.131 0.548,-0.301 0.888,-0.301 0.548,0 0.944,0.433 1.303,1.322 L -2.04,0 -5.969,8.5 h 2.607 l 1.983,-4.646 c 0.17,-0.416 0.283,-0.813 0.416,-1.228 0.075,0.396 0.151,0.812 0.302,1.247 L 0.869,8.5 h 2.475 z"
             style="fill:#fff;fill-opacity:1;fill-rule:nonzero;stroke:none"
             id="path92" />
        </g>
        <g
           id="g94"
           transform="translate(184.9175,339.0537)">
          <path
             d="M 0,0 -4.647,5.85 V 0 h -0.852 v 7.444 h 0.724 l 4.648,-5.87 v 5.87 h 0.85 L 0.723,0 Z"
             style="fill:#fff;fill-opacity:1;fill-rule:nonzero;stroke:none"
             id="path96" />
        </g>
        <g
           id="g98"
           transform="translate(190.1768,340.3613)">
          <path
             d="m 0,0 v 0.607 c -0.298,0.212 -0.66,0.319 -1.074,0.319 -0.511,0 -1.021,-0.235 -1.021,-0.787 0,-0.457 0.308,-0.755 0.861,-0.755 0.628,0 0.989,0.329 1.234,0.616 m -2.627,3.148 c 0.425,0.266 1,0.436 1.595,0.436 1.362,0 1.84,-0.712 1.84,-1.956 V -1.308 H 0 v 0.617 c -0.288,-0.362 -0.745,-0.691 -1.532,-0.691 -0.872,0 -1.468,0.553 -1.468,1.478 0,0.978 0.777,1.521 1.809,1.521 0.372,0 0.872,-0.074 1.191,-0.308 0,0.893 -0.139,1.509 -1.085,1.509 -0.585,0 -0.936,-0.148 -1.319,-0.35 z"
             style="fill:#fff;fill-opacity:1;fill-rule:nonzero;stroke:none"
             id="path100" />
        </g>
        <g
           id="g102"
           transform="translate(192.3003,345.1689)">
          <path
             d="M 0,0 H 0.851 V -1.329 H 2.606 V -2.127 H 0.851 v -2.085 c 0,-0.755 0.245,-1.191 0.851,-1.191 0.33,0 0.585,0.138 0.755,0.266 L 2.723,-5.796 C 2.468,-6.009 2.032,-6.2 1.5,-6.2 0.426,-6.2 0,-5.52 0,-4.296 Z"
             style="fill:#fff;fill-opacity:1;fill-rule:nonzero;stroke:none"
             id="path104" />
        </g>
        <path
           d="m 196.393,343.84 h 0.851 v -4.786 h -0.851 z m 0.446,2.307 c 0.266,0 0.522,-0.202 0.522,-0.51 0,-0.351 -0.256,-0.553 -0.522,-0.553 -0.297,0 -0.552,0.202 -0.552,0.553 0,0.308 0.255,0.51 0.552,0.51"
           style="fill:#fff;fill-opacity:1;fill-rule:nonzero;stroke:none"
           id="path106" />
        <g
           id="g108"
           transform="translate(201.2402,339.7451)">
          <path
             d="M 0,0 C 0.958,0 1.648,0.681 1.648,1.702 1.648,2.701 0.958,3.403 0,3.403 -0.936,3.403 -1.648,2.712 -1.648,1.702 -1.648,0.702 -0.957,0 0,0 m 0,4.2 c 1.532,0 2.553,-1.062 2.553,-2.498 0,-1.436 -1.021,-2.5 -2.553,-2.5 -1.531,0 -2.552,1.064 -2.552,2.5 0,1.436 1.021,2.498 2.552,2.498"
             style="fill:#fff;fill-opacity:1;fill-rule:nonzero;stroke:none"
             id="path110" />
        </g>
        <g
           id="g112"
           transform="translate(205.0122,343.8398)">
          <path
             d="m 0,0 h 0.851 v -0.585 c 0.33,0.361 0.936,0.67 1.564,0.67 1.244,0 1.988,-0.606 1.988,-2.106 V -4.786 H 3.552 v 2.605 c 0,1 -0.457,1.468 -1.35,1.468 -0.543,0 -1.043,-0.266 -1.351,-0.617 V -4.786 H 0 Z"
             style="fill:#fff;fill-opacity:1;fill-rule:nonzero;stroke:none"
             id="path114" />
        </g>
        <g
           id="g116"
           transform="translate(213.5063,340.3613)">
          <path
             d="m 0,0 v 0.607 c -0.298,0.212 -0.66,0.319 -1.074,0.319 -0.511,0 -1.021,-0.235 -1.021,-0.787 0,-0.457 0.308,-0.755 0.861,-0.755 0.628,0 0.989,0.329 1.234,0.616 m -2.627,3.148 c 0.425,0.266 1,0.436 1.595,0.436 1.362,0 1.84,-0.712 1.84,-1.956 V -1.308 H 0 v 0.617 c -0.288,-0.362 -0.745,-0.691 -1.532,-0.691 -0.872,0 -1.468,0.553 -1.468,1.478 0,0.978 0.777,1.521 1.809,1.521 0.372,0 0.872,-0.074 1.191,-0.308 0,0.893 -0.139,1.509 -1.085,1.509 -0.585,0 -0.936,-0.148 -1.319,-0.35 z"
             style="fill:#fff;fill-opacity:1;fill-rule:nonzero;stroke:none"
             id="path118" />
        </g>
        <g
           id="g120"
           transform="translate(215.7363,346.498)">
          <path
             d="m 0,0 h 0.851 v -5.785 c 0,-0.649 0.159,-0.947 0.564,-0.947 0.233,0 0.446,0.107 0.606,0.212 L 2.212,-7.168 C 1.957,-7.37 1.585,-7.529 1.085,-7.529 0.362,-7.529 0,-7.094 0,-6.168 Z"
             style="fill:#fff;fill-opacity:1;fill-rule:nonzero;stroke:none"
             id="path122" />
        </g>
        <g
           id="g124"
           transform="translate(222.4648,345.6475)">
          <path
             d="m 0,0 v -2.765 h 1.096 c 0.861,0 1.691,0.532 1.691,1.414 0,0.766 -0.426,1.372 -1.745,1.372 C 0.809,0.021 0.351,0.011 0,0 m -0.904,-6.594 v 7.445 c 0.415,0 1.787,0.021 2,0.021 2.031,0 2.648,-1.01 2.648,-2.212 0,-1.159 -0.798,-1.893 -1.617,-2.106 L 4.605,-6.594 H 3.499 L 1.213,-3.616 H 0 v -2.978 z"
             style="fill:#fff;fill-opacity:1;fill-rule:nonzero;stroke:none"
             id="path126" />
        </g>
        <g
           id="g128"
           transform="translate(228.6289,341.8721)">
          <path
             d="M 0,0 H 2.903 C 2.861,0.787 2.351,1.276 1.521,1.276 0.649,1.276 0.096,0.733 0,0 m 3.457,-2.298 c -0.468,-0.425 -1.16,-0.627 -1.798,-0.627 -1.553,0 -2.563,0.989 -2.563,2.5 0,1.393 0.893,2.498 2.467,2.498 1.234,0 2.223,-0.871 2.223,-2.19 0,-0.234 -0.021,-0.425 -0.053,-0.574 h -3.68 c 0.075,-0.904 0.734,-1.436 1.67,-1.436 0.617,0 1.159,0.212 1.468,0.5 z"
             style="fill:#fff;fill-opacity:1;fill-rule:nonzero;stroke:none"
             id="path130" />
        </g>
        <g
           id="g132"
           transform="translate(233.4116,342.5957)">
          <path
             d="m 0,0 c 0,0.84 0.681,1.35 1.627,1.35 0.787,0 1.361,-0.288 1.648,-0.563 L 2.871,0.138 C 2.584,0.393 2.169,0.605 1.669,0.605 1.191,0.605 0.904,0.329 0.904,0.01 c 0,-1.01 2.584,-0.531 2.584,-2.212 0,-1.011 -0.893,-1.446 -1.85,-1.446 -0.777,0 -1.542,0.404 -1.766,0.744 l 0.479,0.606 c 0.276,-0.319 0.904,-0.606 1.382,-0.606 0.447,0 0.851,0.223 0.851,0.66 C 2.584,-1.277 0,-1.756 0,0"
             style="fill:#fff;fill-opacity:1;fill-rule:nonzero;stroke:none"
             id="path134" />
        </g>
        <g
           id="g136"
           transform="translate(238.7261,341.8721)">
          <path
             d="M 0,0 H 2.904 C 2.861,0.787 2.351,1.276 1.521,1.276 0.649,1.276 0.096,0.733 0,0 m 3.457,-2.298 c -0.468,-0.425 -1.16,-0.627 -1.798,-0.627 -1.553,0 -2.563,0.989 -2.563,2.5 0,1.393 0.893,2.498 2.467,2.498 1.234,0 2.223,-0.871 2.223,-2.19 0,-0.234 -0.021,-0.425 -0.053,-0.574 h -3.68 c 0.075,-0.904 0.734,-1.436 1.67,-1.436 0.617,0 1.159,0.212 1.468,0.5 z"
             style="fill:#fff;fill-opacity:1;fill-rule:nonzero;stroke:none"
             id="path138" />
        </g>
        <g
           id="g140"
           transform="translate(246.3271,340.3613)">
          <path
             d="m 0,0 v 0.607 c -0.298,0.212 -0.66,0.319 -1.074,0.319 -0.511,0 -1.021,-0.235 -1.021,-0.787 0,-0.457 0.308,-0.755 0.861,-0.755 0.628,0 0.989,0.329 1.234,0.616 m -2.627,3.148 c 0.425,0.266 1,0.436 1.595,0.436 1.362,0 1.84,-0.712 1.84,-1.956 V -1.308 H 0 v 0.617 c -0.288,-0.362 -0.745,-0.691 -1.532,-0.691 -0.872,0 -1.468,0.553 -1.468,1.478 0,0.978 0.777,1.521 1.809,1.521 0.372,0 0.872,-0.074 1.191,-0.308 0,0.893 -0.139,1.509 -1.085,1.509 -0.585,0 -0.936,-0.148 -1.319,-0.35 z"
             style="fill:#fff;fill-opacity:1;fill-rule:nonzero;stroke:none"
             id="path142" />
        </g>
        <g
           id="g144"
           transform="translate(248.5571,343.8398)">
          <path
             d="m 0,0 h 0.851 v -0.564 c 0.245,0.362 0.596,0.649 1.202,0.649 0.393,0 0.585,-0.064 0.744,-0.181 L 2.5,-0.894 c -0.234,0.138 -0.362,0.181 -0.649,0.181 -0.553,0 -0.819,-0.33 -1,-0.681 V -4.786 H 0 Z"
             style="fill:#fff;fill-opacity:1;fill-rule:nonzero;stroke:none"
             id="path146" />
        </g>
        <g
           id="g148"
           transform="translate(256.2549,339.7451)">
          <path
             d="m 0,0 c -0.404,-0.521 -1.106,-0.798 -1.84,-0.798 -1.521,0 -2.563,0.989 -2.563,2.5 0,1.393 1.021,2.498 2.425,2.498 0.766,0 1.436,-0.179 1.882,-0.627 l -0.393,-0.67 c -0.404,0.372 -0.872,0.5 -1.372,0.5 -0.862,0 -1.638,-0.691 -1.638,-1.701 0,-1.054 0.776,-1.702 1.723,-1.702 0.574,0 1.053,0.255 1.372,0.616 z"
             style="fill:#fff;fill-opacity:1;fill-rule:nonzero;stroke:none"
             id="path150" />
        </g>
        <g
           id="g152"
           transform="translate(257.3574,346.498)">
          <path
             d="m 0,0 h 0.851 v -3.211 c 0.351,0.361 0.957,0.638 1.564,0.638 1.244,0 1.988,-0.628 1.988,-2.127 V -7.444 H 3.552 v 2.627 c 0,0.957 -0.457,1.446 -1.34,1.446 -0.531,0 -1.063,-0.266 -1.361,-0.606 v -3.467 l -0.851,0 z"
             style="fill:#fff;fill-opacity:1;fill-rule:nonzero;stroke:none"
             id="path154" />
        </g>
        <g
           id="g156"
           transform="translate(131.8862,329.8047)">
          <path
             d="M 0,0 V 16.651 H 8.197 V -0.533 c 0,-2.56 1.679,-5.188 4.998,-5.188 3.278,0 4.958,2.628 4.958,5.188 v 17.184 h 8.196 V 0.041 c 0,-6.639 -4.158,-13.166 -13.154,-13.166 C 4.198,-13.125 0,-6.598 0,0"
             style="fill:#fff;fill-opacity:1;fill-rule:nonzero;stroke:none"
             id="path158" />
        </g>
        <g
           id="g160"
           transform="translate(165.5532,328.2549)">
          <path
             d="m 0,0 c 0,-11.177 -9.093,-20.271 -20.271,-20.271 h -0.444 c -11.177,0 -20.271,9.094 -20.271,20.271 V 23.321 H 0 Z m 0.731,28.274 h -4.023 l -2.674,-0.736 v -0.957 h -8.768 v 1.011 l -2.685,1.039 h -2.177 l -0.454,0.248 c 0.015,0.046 0.028,0.092 0.028,0.143 0,0.193 -0.12,0.356 -0.29,0.422 v 1.597 h -0.338 v -1.597 c -0.167,-0.067 -0.286,-0.23 -0.286,-0.422 0,-0.05 0.014,-0.096 0.028,-0.141 l -0.459,-0.25 h -2.279 l -2.557,-1.077 v -0.973 h -8.825 v 0.953 l -2.674,0.74 h -4.024 L -44.4,27.534 V 23.7 0 c 0,-13.06 10.625,-23.685 23.685,-23.685 h 0.444 C -7.211,-23.685 3.414,-13.06 3.414,0 V 26.083 H 3.405 v 1.449 z"
             style="fill:#fff;fill-opacity:1;fill-rule:nonzero;stroke:none"
             id="path162" />
        </g>
        <g
           id="g164"
           transform="translate(133.7256,318.9062)">
          <path
             d="m 0,0 1.574,-1.568 -0.406,-0.408 -0.569,0.569 -1.488,-1.492 -0.433,0.432 1.487,1.492 -0.57,0.568 z"
             style="fill:#fff;fill-opacity:1;fill-rule:nonzero;stroke:none"
             id="path166" />
        </g>
        <g
           id="g168"
           transform="translate(135.6289,314.4639)">
          <path
             d="M 0,0 C 0.427,-0.276 0.845,-0.118 1.091,0.261 1.357,0.673 1.246,1.128 0.883,1.363 0.51,1.604 0.059,1.514 -0.208,1.102 -0.458,0.716 -0.359,0.233 0,0 M 1.195,1.846 C 1.88,1.402 2.102,0.624 1.638,-0.093 1.196,-0.774 0.373,-0.926 -0.312,-0.482 c -0.686,0.444 -0.906,1.221 -0.442,1.938 0.423,0.652 1.233,0.854 1.949,0.39"
             style="fill:#fff;fill-opacity:1;fill-rule:nonzero;stroke:none"
             id="path170" />
        </g>
        <g
           id="g172"
           transform="translate(138.5537,315.2324)">
          <path
             d="m 0,0 0.584,-0.197 0.425,-1.334 1.1,0.821 0.548,-0.185 -0.854,-2.541 -0.581,0.196 0.544,1.619 -1.04,-0.753 -0.085,0.028 -0.374,1.217 -0.541,-1.608 -0.58,0.195 z"
             style="fill:#fff;fill-opacity:1;fill-rule:nonzero;stroke:none"
             id="path174" />
        </g>
        <g
           id="g176"
           transform="translate(141.9092,313.501)">
          <path
             d="M 0,0 C 0.052,0.41 0.424,0.727 0.955,0.66 1.298,0.617 1.556,0.468 1.702,0.269 L 1.318,-0.146 C 1.214,-0.021 1.134,0.059 0.937,0.083 0.769,0.104 0.661,0.04 0.646,-0.081 0.59,-0.522 1.714,-0.556 1.605,-1.422 1.547,-1.885 1.107,-2.154 0.595,-2.09 c -0.358,0.045 -0.753,0.249 -0.846,0.551 l 0.398,0.37 c 0.128,-0.213 0.348,-0.329 0.534,-0.352 0.16,-0.021 0.261,0.047 0.277,0.173 C 1.008,-0.948 -0.108,-0.858 0,0"
             style="fill:#fff;fill-opacity:1;fill-rule:nonzero;stroke:none"
             id="path178" />
        </g>
        <g
           id="g180"
           transform="translate(144.582,313.959)">
          <path
             d="M 0,0 0.612,0.015 0.639,-1.152 1.489,0.034 2.224,0.052 1.246,-1.207 2.367,-2.626 1.59,-2.645 0.645,-1.39 0.674,-2.665 0.062,-2.68 Z"
             style="fill:#fff;fill-opacity:1;fill-rule:nonzero;stroke:none"
             id="path182" />
        </g>
        <g
           id="g184"
           transform="translate(147.5732,312.9307)">
          <path
             d="M 0,0 0.999,0.158 1.083,-0.371 0.084,-0.529 Z"
             style="fill:#fff;fill-opacity:1;fill-rule:nonzero;stroke:none"
             id="path186" />
        </g>
        <g
           id="g188"
           transform="translate(149.626,314.5654)">
          <path
             d="m 0,0 0.398,0.112 0.728,-2.58 -0.552,-0.156 -0.507,1.796 -0.208,-0.254 -0.416,0.375 z"
             style="fill:#fff;fill-opacity:1;fill-rule:nonzero;stroke:none"
             id="path190" />
        </g>
        <g
           id="g192"
           transform="translate(152.3447,313.8848)">
          <path
             d="m 0,0 c -0.156,-0.073 -0.267,-0.226 -0.186,-0.399 0.063,-0.135 0.209,-0.212 0.438,-0.106 0.264,0.123 0.269,0.275 0.204,0.404 -0.084,0.173 -0.248,0.198 -0.414,0.12 z m -0.202,0.539 c 0.163,0.076 0.181,0.229 0.132,0.336 -0.064,0.136 -0.192,0.173 -0.368,0.091 -0.181,-0.085 -0.21,-0.221 -0.157,-0.335 0.051,-0.108 0.178,-0.192 0.348,-0.112 z m -0.49,-1.302 c -0.153,0.326 -0.073,0.609 0.085,0.787 l -0.005,0.011 c -0.2,0.012 -0.442,0.128 -0.582,0.43 -0.178,0.382 0.062,0.81 0.516,1.022 C -0.223,1.699 0.263,1.61 0.44,1.229 0.551,0.992 0.529,0.703 0.36,0.494 L 0.365,0.483 C 0.604,0.526 0.892,0.416 1.039,0.101 1.253,-0.358 1.005,-0.786 0.498,-1.022 -0.009,-1.259 -0.5,-1.177 -0.692,-0.763"
             style="fill:#fff;fill-opacity:1;fill-rule:nonzero;stroke:none"
             id="path194" />
        </g>
        <g
           id="g196"
           transform="translate(153.0254,316.0156)">
          <path
             d="M 0,0 1.434,1.023 1.661,0.706 2.252,-1.686 1.741,-2.05 1.209,0.158 0.333,-0.467 Z"
             style="fill:#fff;fill-opacity:1;fill-rule:nonzero;stroke:none"
             id="path198" />
        </g>
        <g
           id="g200"
           transform="translate(156.6982,316.9717)">
          <path
             d="M 0,0 C -0.121,-0.123 -0.17,-0.306 -0.034,-0.439 0.073,-0.544 0.237,-0.564 0.414,-0.384 0.617,-0.176 0.57,-0.032 0.462,0.067 0.323,0.198 0.161,0.164 0.032,0.033 Z m -0.378,0.435 c 0.126,0.128 0.089,0.277 0.004,0.36 C -0.48,0.899 -0.613,0.89 -0.75,0.75 -0.889,0.607 -0.868,0.47 -0.778,0.382 -0.693,0.299 -0.544,0.265 -0.413,0.399 Z M -0.38,-0.957 c -0.257,0.252 -0.282,0.544 -0.198,0.767 l -0.008,0.007 c -0.191,-0.058 -0.457,-0.034 -0.695,0.2 -0.301,0.294 -0.227,0.779 0.124,1.137 C -0.806,1.513 -0.32,1.6 -0.019,1.306 0.167,1.123 0.249,0.845 0.165,0.589 L 0.173,0.581 C 0.38,0.705 0.689,0.703 0.938,0.459 1.299,0.105 1.218,-0.383 0.827,-0.782 0.435,-1.182 -0.054,-1.276 -0.38,-0.957"
             style="fill:#fff;fill-opacity:1;fill-rule:nonzero;stroke:none"
             id="path202" />
        </g>
        <g
           id="g204"
           transform="translate(178.5425,471.8325)">
          <path
             d="M 0,0 H 10.9 V -2.172 H 6.612 V -13.223 H 4.288 v 11.051 l -4.288,0 z"
             style="fill:#fff;fill-opacity:1;fill-rule:nonzero;stroke:none"
             id="path206" />
        </g>
        <g
           id="g208"
           transform="translate(192.4653,460.4229)">
          <path
             d="M 0,0 C 1.341,0 2.324,0.963 2.324,2.437 2.324,3.873 1.322,4.855 0,4.855 -1.285,4.855 -2.305,3.91 -2.305,2.437 -2.305,1.02 -1.322,0 0,0 m 0,6.895 c 2.815,0 4.628,-1.908 4.628,-4.458 0,-2.55 -1.813,-4.458 -4.628,-4.458 -2.814,0 -4.628,1.908 -4.628,4.458 0,2.55 1.814,4.458 4.628,4.458"
             style="fill:#fff;fill-opacity:1;fill-rule:nonzero;stroke:none"
             id="path210" />
        </g>
        <g
           id="g212"
           transform="translate(198.9844,467.1099)">
          <path
             d="M 0,0 H 1.965 L 4.855,-3.551 7.594,0 H 9.502 V -8.5 H 7.33 v 5.194 L 4.817,-6.479 H 4.76 L 2.172,-3.306 V -8.5 H 0 Z"
             style="fill:#fff;fill-opacity:1;fill-rule:nonzero;stroke:none"
             id="path214" />
        </g>
        <g
           id="g216"
           transform="translate(218.3677,459.875)">
          <path
             d="m 0,0 c -0.718,-0.963 -2.002,-1.474 -3.381,-1.474 -2.759,0 -4.61,1.776 -4.61,4.459 0,2.474 1.814,4.458 4.402,4.458 1.398,0 2.626,-0.359 3.419,-1.152 l -1.02,-1.72 c -0.643,0.624 -1.342,0.832 -2.116,0.832 -1.209,0 -2.361,-0.926 -2.361,-2.418 0,-1.511 1.171,-2.437 2.456,-2.437 0.925,0 1.643,0.434 2.19,1.039 z"
             style="fill:#fff;fill-opacity:1;fill-rule:nonzero;stroke:none"
             id="path218" />
        </g>
        <g
           id="g220"
           transform="translate(224.8857,463.0674)">
          <path
             d="M 0,0 3.665,-4.458 H 0.831 l -3.362,4.288 3.06,4.212 h 2.739 z m -4.779,4.042 h 2.172 v -8.5 h -2.172 z"
             style="fill:#fff;fill-opacity:1;fill-rule:nonzero;stroke:none"
             id="path222" />
        </g>
        <g
           id="g224"
           transform="translate(229.8364,458.6094)">
          <path
             d="M 0,0 V 8.5 H 2.172 V 3.117 L 6.139,8.5 H 8.312 V 0 H 6.139 V 5.384 L 2.172,0 Z"
             style="fill:#fff;fill-opacity:1;fill-rule:nonzero;stroke:none"
             id="path226" />
        </g>
        <g
           id="g228"
           transform="translate(243.8169,471.3604)">
          <path
             d="m 0,0 c 0,-0.699 0.265,-1.379 0.982,-1.379 0.643,0 0.907,0.68 0.907,1.379 h 1.984 c 0,-1.625 -0.983,-2.928 -2.891,-2.928 -2.115,0 -2.965,1.284 -2.965,2.928 z m -3.249,-12.751 v 8.501 h 2.172 V -9.634 L 2.89,-4.25 h 2.173 v -8.501 H 2.89 v 5.384 l -3.967,-5.384 z"
             style="fill:#fff;fill-opacity:1;fill-rule:nonzero;stroke:none"
             id="path230" />
        </g>
        <g
           id="g232"
           transform="translate(255.3042,467.1099)">
          <path
             d="M 0,0 H 5.705 V -2.04 H 2.172 V -8.5 H 0 Z"
             style="fill:#fff;fill-opacity:1;fill-rule:nonzero;stroke:none"
             id="path234" />
        </g>
        <g
           id="g236"
           transform="translate(266.2231,460.4229)">
          <path
             d="M 0,0 C 1.341,0 2.324,0.963 2.324,2.437 2.324,3.873 1.322,4.855 0,4.855 -1.285,4.855 -2.305,3.91 -2.305,2.437 -2.305,1.02 -1.322,0 0,0 m 0,6.895 c 2.815,0 4.628,-1.908 4.628,-4.458 0,-2.55 -1.813,-4.458 -4.628,-4.458 -2.814,0 -4.628,1.908 -4.628,4.458 0,2.55 1.814,4.458 4.628,4.458"
             style="fill:#fff;fill-opacity:1;fill-rule:nonzero;stroke:none"
             id="path238" />
        </g>
        <g
           id="g240"
           transform="translate(280.2041,459.875)">
          <path
             d="m 0,0 c -0.718,-0.963 -2.002,-1.474 -3.382,-1.474 -2.758,0 -4.609,1.776 -4.609,4.459 0,2.474 1.814,4.458 4.402,4.458 1.398,0 2.625,-0.359 3.419,-1.152 l -1.02,-1.72 c -0.643,0.624 -1.342,0.832 -2.116,0.832 -1.209,0 -2.361,-0.926 -2.361,-2.418 0,-1.511 1.171,-2.437 2.456,-2.437 0.925,0 1.643,0.434 2.19,1.039 z"
             style="fill:#fff;fill-opacity:1;fill-rule:nonzero;stroke:none"
             id="path242" />
        </g>
        <g
           id="g244"
           transform="translate(286.5522,458.6094)">
          <path
             d="m 0,0 c -1.247,-3.042 -2.041,-3.778 -3.287,-3.778 -0.775,0 -1.341,0.302 -1.833,0.661 l 0.7,1.643 c 0.226,-0.131 0.547,-0.302 0.887,-0.302 0.548,0 0.945,0.435 1.304,1.323 L -2.041,0 -5.97,8.5 h 2.607 l 1.984,-4.646 c 0.17,-0.416 0.283,-0.812 0.416,-1.228 0.075,0.396 0.151,0.812 0.302,1.247 L 0.869,8.5 h 2.474 z"
             style="fill:#fff;fill-opacity:1;fill-rule:nonzero;stroke:none"
             id="path246" />
        </g>
        <g
           id="g248"
           transform="translate(292.8252,460.6309)">
          <path
             d="M 0,0 H 3.154 V 4.439 H 1.077 L 1.02,3.57 C 0.85,1.775 0.377,0.529 0,0 m -3.344,0 h 1.077 c 0.604,0.793 1.077,2.512 1.19,4.439 l 0.132,2.04 H 5.327 V 0 h 1.417 v -4.005 h -2.04 v 1.984 h -6.027 v -1.984 h -2.021 z"
             style="fill:#fff;fill-opacity:1;fill-rule:nonzero;stroke:none"
             id="path250" />
        </g>
        <g
           id="g252"
           transform="translate(305.4829,461.103)">
          <path
             d="m 0,0 v 0.869 c -0.378,0.283 -0.869,0.416 -1.492,0.416 -0.718,0 -1.361,-0.341 -1.361,-1.058 0,-0.643 0.529,-1.001 1.209,-1.001 0.907,0 1.379,0.396 1.644,0.774 m -4.364,5.402 c 0.737,0.435 1.889,0.813 3.004,0.813 2.512,0 3.401,-1.285 3.401,-3.533 v -5.176 h -1.89 v 0.983 c -0.453,-0.643 -1.36,-1.096 -2.512,-1.096 -1.549,0 -2.664,0.963 -2.664,2.607 0,1.87 1.379,2.758 3.098,2.758 0.756,0 1.511,-0.246 1.927,-0.548 0.057,1.417 -0.321,2.191 -1.587,2.191 -0.982,0 -1.605,-0.302 -2.229,-0.585 z"
             style="fill:#fff;fill-opacity:1;fill-rule:nonzero;stroke:none"
             id="path254" />
        </g>
        <g
           id="g256"
           transform="translate(311.9258,464.3521)">
          <path
             d="m 0,0 v -3.438 c 0.585,-0.378 1.076,-0.491 1.794,-0.491 1.512,0 2.38,1.096 2.38,2.512 0,1.36 -0.793,2.343 -2.229,2.343 C 1.209,0.926 0.528,0.585 0,0 M -2.173,2.758 H 0 V 1.946 c 0.528,0.566 1.529,1.02 2.625,1.02 2.343,0 3.854,-1.814 3.854,-4.326 0,-2.588 -1.776,-4.591 -4.496,-4.591 -0.755,0 -1.493,0.133 -1.983,0.416 v -3.986 h -2.173 z"
             style="fill:#fff;fill-opacity:1;fill-rule:nonzero;stroke:none"
             id="path258" />
        </g>
        <g
           id="g260"
           transform="translate(327.7578,459.875)">
          <path
             d="m 0,0 c -0.718,-0.963 -2.003,-1.474 -3.382,-1.474 -2.758,0 -4.609,1.776 -4.609,4.459 0,2.474 1.813,4.458 4.401,4.458 1.399,0 2.626,-0.359 3.42,-1.152 l -1.02,-1.72 c -0.643,0.624 -1.341,0.832 -2.116,0.832 -1.209,0 -2.361,-0.926 -2.361,-2.418 0,-1.511 1.171,-2.437 2.455,-2.437 0.926,0 1.644,0.434 2.191,1.039 z"
             style="fill:#fff;fill-opacity:1;fill-rule:nonzero;stroke:none"
             id="path262" />
        </g>
        <g
           id="g264"
           transform="translate(328.458,467.1099)">
          <path
             d="M 0,0 H 7.745 V -2.172 H 4.968 V -8.5 H 2.796 v 6.328 l -2.796,0 z"
             style="fill:#fff;fill-opacity:1;fill-rule:nonzero;stroke:none"
             id="path266" />
        </g>
        <g
           id="g268"
           transform="translate(339.9258,462.2173)">
          <path
             d="m 0,0 v -1.889 c 0.32,-0.019 0.906,-0.075 1.436,-0.075 0.962,0 1.529,0.396 1.529,0.982 C 2.965,-0.34 2.38,0 1.359,0 Z M 0,3.193 V 1.322 H 1.416 C 2.134,1.322 2.72,1.644 2.72,2.305 2.72,2.928 2.172,3.23 1.359,3.23 0.85,3.23 0.227,3.211 0,3.193 m -2.173,1.7 c 0.736,0.019 2.022,0.094 3.344,0.094 2.475,0 3.853,-0.68 3.853,-2.229 0,-1.02 -0.736,-1.757 -1.586,-1.889 V 0.832 c 1.19,-0.284 1.813,-0.983 1.813,-1.965 0,-1.681 -1.304,-2.569 -4.042,-2.569 -1.059,0 -2.607,0.094 -3.382,0.094 z"
             style="fill:#fff;fill-opacity:1;fill-rule:nonzero;stroke:none"
             id="path270" />
        </g>
        <g
           id="g272"
           transform="translate(348.8809,463.6533)">
          <path
             d="M 0,0 H 4.175 C 4.193,1.039 3.476,1.851 2.229,1.851 0.926,1.851 0.227,1.114 0,0 m 5.648,-4.194 c -0.85,-0.718 -2.059,-1.058 -3.249,-1.058 -2.739,0 -4.572,1.776 -4.572,4.459 0,2.474 1.7,4.458 4.496,4.458 2.192,0 4.024,-1.568 4.024,-3.949 0,-0.528 -0.037,-0.85 -0.132,-1.171 h -6.14 c 0.19,-1.284 1.209,-1.983 2.551,-1.983 1.039,0 1.907,0.377 2.398,0.774 z"
             style="fill:#fff;fill-opacity:1;fill-rule:nonzero;stroke:none"
             id="path274" />
        </g>
        <g
           id="g276"
           transform="translate(362.8789,461.8584)">
          <path
             d="m 0,0 h -3.721 v -3.249 h -2.173 v 8.5 h 2.173 V 2.04 H 0 v 3.211 h 2.173 v -8.5 l -2.173,0 z"
             style="fill:#fff;fill-opacity:1;fill-rule:nonzero;stroke:none"
             id="path278" />
        </g>
        <g
           id="g280"
           transform="translate(373.3652,461.8584)">
          <path
             d="m 0,0 h -3.721 v -3.249 h -2.173 v 8.5 h 2.173 V 2.04 H 0 v 3.211 h 2.173 v -8.5 l -2.173,0 z"
             style="fill:#fff;fill-opacity:1;fill-rule:nonzero;stroke:none"
             id="path282" />
        </g>
        <path
           d="m 386.137,467.11 h 2.172 v -8.5 h -2.172 z m -6.007,-4.061 v -2.55 h 0.849 c 1.171,0 1.644,0.491 1.644,1.265 0,0.775 -0.453,1.285 -1.625,1.285 z m -2.173,4.061 h 2.173 v -2.323 h 1.057 c 2.89,0 3.741,-1.436 3.741,-2.947 0,-1.625 -1.021,-3.231 -3.91,-3.231 h -3.061 z"
           style="fill:#fff;fill-opacity:1;fill-rule:nonzero;stroke:none"
           id="path284" />
        <g
           id="g286"
           transform="translate(393.9775,471.3604)">
          <path
             d="m 0,0 c 0,-0.699 0.265,-1.379 0.982,-1.379 0.643,0 0.908,0.68 0.908,1.379 h 1.983 c 0,-1.625 -0.982,-2.928 -2.891,-2.928 -2.116,0 -2.965,1.284 -2.965,2.928 z m -3.249,-12.751 v 8.501 h 2.173 v -5.384 l 3.967,5.384 h 2.171 v -8.501 H 2.891 v 5.384 l -3.967,-5.384 z"
             style="fill:#fff;fill-opacity:1;fill-rule:nonzero;stroke:none"
             id="path288" />
        </g>
        <g
           id="g290"
           transform="translate(410.3193,458.6094)">
          <path
             d="m 0,0 c -1.246,-3.042 -2.04,-3.778 -3.286,-3.778 -0.776,0 -1.342,0.302 -1.833,0.661 l 0.699,1.643 c 0.227,-0.131 0.548,-0.302 0.888,-0.302 0.548,0 0.944,0.435 1.303,1.323 L -2.04,0 -5.969,8.5 h 2.607 l 1.983,-4.646 c 0.17,-0.416 0.283,-0.812 0.416,-1.228 0.075,0.396 0.151,0.812 0.302,1.247 L 0.869,8.5 h 2.475 z"
             style="fill:#fff;fill-opacity:1;fill-rule:nonzero;stroke:none"
             id="path292" />
        </g>
        <g
           id="g294"
           transform="translate(420.8613,461.8584)">
          <path
             d="m 0,0 h -3.721 v -3.249 h -2.173 v 8.5 h 2.173 V 2.04 H 0 v 3.211 h 2.173 v -8.5 l -2.173,0 z"
             style="fill:#fff;fill-opacity:1;fill-rule:nonzero;stroke:none"
             id="path296" />
        </g>
        <g
           id="g298"
           transform="translate(425.4531,458.6094)">
          <path
             d="M 0,0 V 8.5 H 2.173 V 3.117 L 6.14,8.5 H 8.312 V 0 H 6.14 V 5.384 L 2.173,0 Z"
             style="fill:#fff;fill-opacity:1;fill-rule:nonzero;stroke:none"
             id="path300" />
        </g>
        <g
           id="g302"
           transform="translate(438.3574,462.2173)">
          <path
             d="m 0,0 v -1.889 c 0.32,-0.019 0.906,-0.075 1.436,-0.075 0.962,0 1.529,0.396 1.529,0.982 C 2.965,-0.34 2.38,0 1.359,0 Z M 0,3.193 V 1.322 H 1.416 C 2.134,1.322 2.72,1.644 2.72,2.305 2.72,2.928 2.172,3.23 1.359,3.23 0.85,3.23 0.227,3.211 0,3.193 m -2.173,1.7 c 0.736,0.019 2.022,0.094 3.344,0.094 2.475,0 3.853,-0.68 3.853,-2.229 0,-1.02 -0.736,-1.757 -1.586,-1.889 V 0.832 c 1.19,-0.284 1.813,-0.983 1.813,-1.965 0,-1.681 -1.304,-2.569 -4.042,-2.569 -1.059,0 -2.607,0.094 -3.382,0.094 z"
             style="fill:#fff;fill-opacity:1;fill-rule:nonzero;stroke:none"
             id="path304" />
        </g>
        <g
           id="g306"
           transform="translate(447.3125,463.6533)">
          <path
             d="M 0,0 H 4.175 C 4.193,1.039 3.476,1.851 2.229,1.851 0.926,1.851 0.227,1.114 0,0 m 5.648,-4.194 c -0.85,-0.718 -2.059,-1.058 -3.249,-1.058 -2.739,0 -4.572,1.776 -4.572,4.459 0,2.474 1.7,4.458 4.496,4.458 2.192,0 4.024,-1.568 4.024,-3.949 0,-0.528 -0.037,-0.85 -0.132,-1.171 h -6.14 c 0.19,-1.284 1.209,-1.983 2.551,-1.983 1.039,0 1.907,0.377 2.398,0.774 z"
             style="fill:#fff;fill-opacity:1;fill-rule:nonzero;stroke:none"
             id="path308" />
        </g>
        <g
           id="g310"
           transform="translate(457.5898,464.3521)">
          <path
             d="m 0,0 v -3.438 c 0.585,-0.378 1.076,-0.491 1.794,-0.491 1.512,0 2.38,1.096 2.38,2.512 0,1.36 -0.793,2.343 -2.229,2.343 C 1.209,0.926 0.528,0.585 0,0 M -2.173,2.758 H 0 V 1.946 c 0.528,0.566 1.529,1.02 2.625,1.02 2.343,0 3.854,-1.814 3.854,-4.326 0,-2.588 -1.776,-4.591 -4.496,-4.591 -0.755,0 -1.493,0.133 -1.983,0.416 v -3.986 h -2.173 z"
             style="fill:#fff;fill-opacity:1;fill-rule:nonzero;stroke:none"
             id="path312" />
        </g>
        <g
           id="g314"
           transform="translate(473.4219,459.875)">
          <path
             d="m 0,0 c -0.718,-0.963 -2.003,-1.474 -3.382,-1.474 -2.758,0 -4.609,1.776 -4.609,4.459 0,2.474 1.813,4.458 4.401,4.458 1.399,0 2.626,-0.359 3.42,-1.152 l -1.02,-1.72 c -0.643,0.624 -1.341,0.832 -2.116,0.832 -1.209,0 -2.361,-0.926 -2.361,-2.418 0,-1.511 1.171,-2.437 2.455,-2.437 0.926,0 1.644,0.434 2.191,1.039 z"
             style="fill:#fff;fill-opacity:1;fill-rule:nonzero;stroke:none"
             id="path316" />
        </g>
        <g
           id="g318"
           transform="translate(475.1602,458.6094)">
          <path
             d="M 0,0 V 8.5 H 2.173 V 3.117 L 6.14,8.5 H 8.312 V 0 H 6.14 V 5.384 L 2.173,0 Z"
             style="fill:#fff;fill-opacity:1;fill-rule:nonzero;stroke:none"
             id="path320" />
        </g>
        <g
           id="g322"
           transform="translate(485.0039,467.1099)">
          <path
             d="M 0,0 H 7.745 V -2.172 H 4.968 V -8.5 H 2.796 v 6.328 l -2.796,0 z"
             style="fill:#fff;fill-opacity:1;fill-rule:nonzero;stroke:none"
             id="path324" />
        </g>
        <g
           id="g326"
           transform="translate(495.6973,463.6533)">
          <path
             d="M 0,0 H 4.175 C 4.193,1.039 3.476,1.851 2.229,1.851 0.926,1.851 0.227,1.114 0,0 m 5.648,-4.194 c -0.85,-0.718 -2.059,-1.058 -3.249,-1.058 -2.739,0 -4.572,1.776 -4.572,4.459 0,2.474 1.7,4.458 4.496,4.458 2.192,0 4.024,-1.568 4.024,-3.949 0,-0.528 -0.037,-0.85 -0.132,-1.171 h -6.14 c 0.19,-1.284 1.209,-1.983 2.551,-1.983 1.039,0 1.907,0.377 2.398,0.774 z"
             style="fill:#fff;fill-opacity:1;fill-rule:nonzero;stroke:none"
             id="path328" />
        </g>
        <g
           id="g330"
           transform="translate(502.8389,467.1099)">
          <path
             d="M 0,0 H 7.745 V -2.172 H 4.968 V -8.5 H 2.796 v 6.328 l -2.796,0 z"
             style="fill:#fff;fill-opacity:1;fill-rule:nonzero;stroke:none"
             id="path332" />
        </g>
        <g
           id="g334"
           transform="translate(184.4175,481.9546)">
          <path
             d="m 0,0 h -4.095 v -3.372 h -0.904 v 7.445 h 0.904 V 0.851 H 0 V 4.073 H 0.904 V -3.372 H 0 Z"
             style="fill:#fff;fill-opacity:1;fill-rule:nonzero;stroke:none"
             id="path336" />
        </g>
        <g
           id="g338"
           transform="translate(189.8579,479.8911)">
          <path
             d="m 0,0 v 0.606 c -0.298,0.213 -0.66,0.319 -1.074,0.319 -0.511,0 -1.021,-0.234 -1.021,-0.787 0,-0.457 0.308,-0.755 0.861,-0.755 0.628,0 0.989,0.33 1.234,0.617 m -2.627,3.148 c 0.425,0.266 1,0.436 1.595,0.436 1.362,0 1.84,-0.712 1.84,-1.957 V -1.308 H 0 v 0.617 C -0.288,-1.053 -0.745,-1.382 -1.532,-1.382 -2.404,-1.382 -3,-0.83 -3,0.096 c 0,0.978 0.777,1.521 1.809,1.521 0.372,0 0.872,-0.075 1.191,-0.309 0,0.894 -0.139,1.51 -1.085,1.51 -0.585,0 -0.936,-0.149 -1.319,-0.351 z"
             style="fill:#fff;fill-opacity:1;fill-rule:nonzero;stroke:none"
             id="path340" />
        </g>
        <g
           id="g342"
           transform="translate(192.0879,483.3691)">
          <path
             d="M 0,0 H 0.851 V -3.988 H 3.403 V 0 H 4.254 V -3.988 H 5.052 V -5.956 H 4.254 v 1.17 H 0 Z"
             style="fill:#fff;fill-opacity:1;fill-rule:nonzero;stroke:none"
             id="path344" />
        </g>
        <g
           id="g346"
           transform="translate(198.061,478.583)">
          <path
             d="M 0,0 V 4.786 H 0.851 V 1.223 L 3.616,4.786 H 4.467 V 0 H 3.616 V 3.563 L 0.851,0 Z"
             style="fill:#fff;fill-opacity:1;fill-rule:nonzero;stroke:none"
             id="path348" />
        </g>
        <g
           id="g350"
           transform="translate(206.2998,479.2744)">
          <path
             d="M 0,0 C 0.958,0 1.648,0.681 1.648,1.702 1.648,2.701 0.958,3.403 0,3.403 -0.936,3.403 -1.648,2.712 -1.648,1.702 -1.648,0.702 -0.957,0 0,0 m 0,4.201 c 1.532,0 2.553,-1.064 2.553,-2.499 0,-1.436 -1.021,-2.5 -2.553,-2.5 -1.531,0 -2.552,1.064 -2.552,2.5 0,1.435 1.021,2.499 2.552,2.499"
             style="fill:#fff;fill-opacity:1;fill-rule:nonzero;stroke:none"
             id="path352" />
        </g>
        <g
           id="g354"
           transform="translate(213.5811,480.6035)">
          <path
             d="M 0,0 H -2.659 V -2.021 H -3.51 v 4.787 h 0.851 V 0.798 H 0 V 2.766 H 0.851 V -2.021 H 0 Z"
             style="fill:#fff;fill-opacity:1;fill-rule:nonzero;stroke:none"
             id="path356" />
        </g>
        <g
           id="g358"
           transform="translate(218.6294,479.8911)">
          <path
             d="m 0,0 v 0.606 c -0.298,0.213 -0.66,0.319 -1.074,0.319 -0.511,0 -1.021,-0.234 -1.021,-0.787 0,-0.457 0.308,-0.755 0.861,-0.755 0.628,0 0.989,0.33 1.234,0.617 m -2.627,3.148 c 0.425,0.266 1,0.436 1.595,0.436 1.362,0 1.84,-0.712 1.84,-1.957 V -1.308 H 0 v 0.617 C -0.288,-1.053 -0.745,-1.382 -1.532,-1.382 -2.404,-1.382 -3,-0.83 -3,0.096 c 0,0.978 0.777,1.521 1.809,1.521 0.372,0 0.872,-0.075 1.191,-0.309 0,0.894 -0.139,1.51 -1.085,1.51 -0.585,0 -0.936,-0.149 -1.319,-0.351 z"
             style="fill:#fff;fill-opacity:1;fill-rule:nonzero;stroke:none"
             id="path360" />
        </g>
        <g
           id="g362"
           transform="translate(224.1353,482.5181)">
          <path
             d="m 0,0 h -1.681 l -0.052,-0.808 c -0.213,-2.723 -0.936,-3.191 -1.926,-3.191 l -0.064,0.83 c 0.362,-0.032 1.043,0.319 1.16,2.531 l 0.085,1.489 h 3.329 v -4.786 l -0.851,0 z"
             style="fill:#fff;fill-opacity:1;fill-rule:nonzero;stroke:none"
             id="path364" />
        </g>
        <g
           id="g366"
           transform="translate(227.3647,481.1357)">
          <path
             d="m 0,0 v -1.755 h 0.702 c 0.84,0 1.159,0.308 1.159,0.872 C 1.861,-0.309 1.531,0 0.712,0 Z M -0.851,2.233 H 0 V 0.797 h 0.872 c 1.468,0 1.893,-0.797 1.893,-1.648 0,-0.84 -0.489,-1.702 -1.999,-1.702 h -1.617 z"
             style="fill:#fff;fill-opacity:1;fill-rule:nonzero;stroke:none"
             id="path368" />
        </g>
        <g
           id="g370"
           transform="translate(234.7744,480.6035)">
          <path
             d="M 0,0 H -2.659 V -2.021 H -3.51 v 4.787 h 0.851 V 0.798 H 0 V 2.766 H 0.851 V -2.021 H 0 Z"
             style="fill:#fff;fill-opacity:1;fill-rule:nonzero;stroke:none"
             id="path372" />
        </g>
        <path
           d="m 241.609,483.369 h 0.851 v -4.786 h -0.851 z m -3.594,-2.233 v -1.755 h 0.616 c 0.851,0 1.16,0.308 1.16,0.872 0,0.574 -0.33,0.883 -1.149,0.883 z m -0.851,2.233 h 0.851 v -1.436 h 0.787 c 1.467,0 1.893,-0.797 1.893,-1.648 0,-0.841 -0.489,-1.702 -1.989,-1.702 h -1.542 z"
           style="fill:#fff;fill-opacity:1;fill-rule:nonzero;stroke:none"
           id="path374" />
        <g
           id="g376"
           transform="translate(245.4658,485.8149)">
          <path
             d="m 0,0 c 0.042,-0.574 0.309,-0.84 0.819,-0.84 0.468,0 0.734,0.266 0.776,0.84 h 0.798 c 0,-0.84 -0.617,-1.489 -1.574,-1.489 -1.053,0 -1.617,0.649 -1.617,1.489 z m -1.479,-7.232 v 4.786 h 0.852 v -3.563 l 2.765,3.563 h 0.85 v -4.786 h -0.85 v 3.563 l -2.765,-3.563 z"
             style="fill:#fff;fill-opacity:1;fill-rule:nonzero;stroke:none"
             id="path378" />
        </g>
        <g
           id="g380"
           transform="translate(252.3838,478.583)">
          <path
             d="M 0,0 V 4.786 H 0.851 V 1.223 L 3.616,4.786 H 4.467 V 0 H 3.616 V 3.563 L 0.851,0 Z"
             style="fill:#fff;fill-opacity:1;fill-rule:nonzero;stroke:none"
             id="path382" />
        </g>
        <g
           id="g384"
           transform="translate(262.4727,479.2744)">
          <path
             d="m 0,0 c -0.404,-0.521 -1.106,-0.798 -1.84,-0.798 -1.521,0 -2.563,0.989 -2.563,2.5 0,1.393 1.021,2.499 2.425,2.499 0.766,0 1.436,-0.181 1.882,-0.628 l -0.393,-0.67 c -0.404,0.372 -0.872,0.5 -1.372,0.5 -0.862,0 -1.638,-0.691 -1.638,-1.701 0,-1.054 0.776,-1.702 1.723,-1.702 0.574,0 1.053,0.255 1.372,0.617 z"
             style="fill:#fff;fill-opacity:1;fill-rule:nonzero;stroke:none"
             id="path386" />
        </g>
        <g
           id="g388"
           transform="translate(267.415,479.2744)">
          <path
             d="m 0,0 c -0.404,-0.521 -1.106,-0.798 -1.84,-0.798 -1.521,0 -2.563,0.989 -2.563,2.5 0,1.393 1.021,2.499 2.425,2.499 0.766,0 1.436,-0.181 1.882,-0.628 l -0.393,-0.67 c -0.404,0.372 -0.872,0.5 -1.372,0.5 -0.862,0 -1.638,-0.691 -1.638,-1.701 0,-1.054 0.776,-1.702 1.723,-1.702 0.574,0 1.053,0.255 1.372,0.617 z"
             style="fill:#fff;fill-opacity:1;fill-rule:nonzero;stroke:none"
             id="path390" />
        </g>
        <g
           id="g392"
           transform="translate(271.7085,482.5181)">
          <path
             d="m 0,0 h -1.681 l -0.052,-0.808 c -0.213,-2.723 -0.936,-3.191 -1.926,-3.191 l -0.064,0.83 c 0.362,-0.032 1.043,0.319 1.16,2.531 l 0.085,1.489 h 3.329 v -4.786 l -0.851,0 z"
             style="fill:#fff;fill-opacity:1;fill-rule:nonzero;stroke:none"
             id="path394" />
        </g>
        <g
           id="g396"
           transform="translate(274.6719,481.4014)">
          <path
             d="M 0,0 H 2.903 C 2.861,0.787 2.351,1.276 1.521,1.276 0.649,1.276 0.096,0.734 0,0 m 3.457,-2.297 c -0.468,-0.426 -1.16,-0.628 -1.798,-0.628 -1.553,0 -2.563,0.989 -2.563,2.5 0,1.393 0.893,2.499 2.467,2.499 1.234,0 2.223,-0.872 2.223,-2.191 0,-0.234 -0.021,-0.425 -0.053,-0.574 h -3.68 c 0.075,-0.904 0.734,-1.436 1.67,-1.436 0.617,0 1.159,0.212 1.468,0.5 z"
             style="fill:#fff;fill-opacity:1;fill-rule:nonzero;stroke:none"
             id="path398" />
        </g>
        <g
           id="g400"
           transform="translate(280.2734,479.3809)">
          <path
             d="M 0,0 H 2.318 V 3.19 H 0.702 L 0.649,2.393 C 0.542,1.17 0.223,0.297 0,0 m -1.5,0 h 0.596 c 0.319,0.404 0.649,1.414 0.734,2.723 l 0.074,1.265 H 3.169 V 0 H 3.967 V -1.968 H 3.169 v 1.17 h -3.871 v -1.17 H -1.5 Z"
             style="fill:#fff;fill-opacity:1;fill-rule:nonzero;stroke:none"
             id="path402" />
        </g>
        <g
           id="g404"
           transform="translate(287.3955,479.2744)">
          <path
             d="M 0,0 C 0.958,0 1.648,0.681 1.648,1.702 1.648,2.701 0.958,3.403 0,3.403 -0.936,3.403 -1.648,2.712 -1.648,1.702 -1.648,0.702 -0.957,0 0,0 m 0,4.201 c 1.532,0 2.553,-1.064 2.553,-2.499 0,-1.436 -1.021,-2.5 -2.553,-2.5 -1.531,0 -2.552,1.064 -2.552,2.5 0,1.435 1.021,2.499 2.552,2.499"
             style="fill:#fff;fill-opacity:1;fill-rule:nonzero;stroke:none"
             id="path406" />
        </g>
        <g
           id="g408"
           transform="translate(292.0181,480.7314)">
          <path
             d="M 0,0 V -1.468 C 0.255,-1.479 0.595,-1.5 0.979,-1.5 c 0.786,0 1.222,0.266 1.222,0.766 C 2.201,-0.234 1.787,0 1.021,0 Z M 0,1.957 V 0.532 h 1.074 c 0.564,0 0.968,0.276 0.968,0.744 0,0.521 -0.479,0.713 -1.096,0.713 C 0.563,1.989 0.212,1.967 0,1.957 m -0.851,0.681 c 0.415,0 1.042,0.042 1.734,0.042 1.34,0 2.063,-0.372 2.063,-1.234 0,-0.563 -0.383,-1.01 -0.957,-1.095 V 0.33 c 0.765,-0.139 1.116,-0.532 1.116,-1.128 0,-0.904 -0.712,-1.393 -2.201,-1.393 -0.596,0 -1.319,0.043 -1.755,0.043 z"
             style="fill:#fff;fill-opacity:1;fill-rule:nonzero;stroke:none"
             id="path410" />
        </g>
        <g
           id="g412"
           transform="translate(299.0767,479.8911)">
          <path
             d="m 0,0 v 0.606 c -0.298,0.213 -0.66,0.319 -1.074,0.319 -0.511,0 -1.021,-0.234 -1.021,-0.787 0,-0.457 0.308,-0.755 0.861,-0.755 0.628,0 0.989,0.33 1.234,0.617 m -2.627,3.148 c 0.425,0.266 1,0.436 1.595,0.436 1.362,0 1.84,-0.712 1.84,-1.957 V -1.308 H 0 v 0.617 C -0.288,-1.053 -0.745,-1.382 -1.532,-1.382 -2.404,-1.382 -3,-0.83 -3,0.096 c 0,0.978 0.777,1.521 1.809,1.521 0.372,0 0.872,-0.075 1.191,-0.309 0,0.894 -0.139,1.51 -1.085,1.51 -0.585,0 -0.936,-0.149 -1.319,-0.351 z"
             style="fill:#fff;fill-opacity:1;fill-rule:nonzero;stroke:none"
             id="path414" />
        </g>
        <g
           id="g416"
           transform="translate(300.7007,483.3691)">
          <path
             d="M 0,0 H 4.36 V -0.851 H 2.605 v -3.935 h -0.85 v 3.935 l -1.755,0 z"
             style="fill:#fff;fill-opacity:1;fill-rule:nonzero;stroke:none"
             id="path418" />
        </g>
        <g
           id="g420"
           transform="translate(306.4189,481.4014)">
          <path
             d="M 0,0 H 2.903 C 2.861,0.787 2.351,1.276 1.521,1.276 0.648,1.276 0.096,0.734 0,0 m 3.457,-2.297 c -0.469,-0.426 -1.16,-0.628 -1.798,-0.628 -1.553,0 -2.563,0.989 -2.563,2.5 0,1.393 0.893,2.499 2.467,2.499 1.234,0 2.223,-0.872 2.223,-2.191 0,-0.234 -0.021,-0.425 -0.053,-0.574 H 0.054 c 0.074,-0.904 0.733,-1.436 1.669,-1.436 0.617,0 1.159,0.212 1.467,0.5 z"
             style="fill:#fff;fill-opacity:1;fill-rule:nonzero;stroke:none"
             id="path422" />
        </g>
        <g
           id="g424"
           transform="translate(314.4561,482.5181)">
          <path
             d="m 0,0 h -1.68 l -0.053,-0.808 c -0.213,-2.723 -0.936,-3.191 -1.925,-3.191 l -0.064,0.83 c 0.362,-0.032 1.042,0.319 1.159,2.531 l 0.085,1.489 h 3.33 v -4.786 l -0.852,0 z"
             style="fill:#fff;fill-opacity:1;fill-rule:nonzero;stroke:none"
             id="path426" />
        </g>
        <g
           id="g428"
           transform="translate(317.6855,481.1357)">
          <path
             d="m 0,0 v -1.755 h 0.702 c 0.841,0 1.159,0.308 1.159,0.872 C 1.861,-0.309 1.532,0 0.713,0 Z M -0.851,2.233 H 0 V 0.797 h 0.872 c 1.468,0 1.894,-0.797 1.894,-1.648 0,-0.84 -0.49,-1.702 -2,-1.702 h -1.617 z"
             style="fill:#fff;fill-opacity:1;fill-rule:nonzero;stroke:none"
             id="path430" />
        </g>
        <g
           id="g432"
           transform="translate(325.6162,479.2744)">
          <path
             d="m 0,0 c -0.404,-0.521 -1.106,-0.798 -1.84,-0.798 -1.52,0 -2.563,0.989 -2.563,2.5 0,1.393 1.021,2.499 2.424,2.499 0.767,0 1.437,-0.181 1.883,-0.628 l -0.393,-0.67 c -0.405,0.372 -0.872,0.5 -1.372,0.5 -0.862,0 -1.638,-0.691 -1.638,-1.701 0,-1.054 0.776,-1.702 1.723,-1.702 0.574,0 1.053,0.255 1.372,0.617 z"
             style="fill:#fff;fill-opacity:1;fill-rule:nonzero;stroke:none"
             id="path434" />
        </g>
        <g
           id="g436"
           transform="translate(328.8154,481.0825)">
          <path
             d="M 0,0 2.297,-2.5 H 1.116 l -2.159,2.447 2.022,2.34 h 1.116 z m -2.096,2.287 h 0.851 v -4.786 h -0.851 z"
             style="fill:#fff;fill-opacity:1;fill-rule:nonzero;stroke:none"
             id="path438" />
        </g>
        <g
           id="g440"
           transform="translate(332.0117,478.583)">
          <path
             d="M 0,0 V 4.786 H 0.851 V 1.223 L 3.616,4.786 H 4.467 V 0 H 3.616 V 3.563 L 0.851,0 Z"
             style="fill:#fff;fill-opacity:1;fill-rule:nonzero;stroke:none"
             id="path442" />
        </g>
        <g
           id="g444"
           transform="translate(339.4961,485.8149)">
          <path
             d="m 0,0 c 0.042,-0.574 0.309,-0.84 0.818,-0.84 0.469,0 0.735,0.266 0.778,0.84 h 0.797 c 0,-0.84 -0.617,-1.489 -1.575,-1.489 -1.052,0 -1.616,0.649 -1.616,1.489 z m -1.479,-7.232 v 4.786 h 0.851 v -3.563 l 2.766,3.563 h 0.85 v -4.786 h -0.85 v 3.563 l -2.766,-3.563 z"
             style="fill:#fff;fill-opacity:1;fill-rule:nonzero;stroke:none"
             id="path446" />
        </g>
        <g
           id="g448"
           transform="translate(131.8862,469.3335)">
          <path
             d="M 0,0 V 16.652 H 8.197 V -0.533 c 0,-2.559 1.679,-5.187 4.998,-5.187 3.278,0 4.958,2.628 4.958,5.187 v 17.185 h 8.196 V 0.041 c 0,-6.638 -4.158,-13.165 -13.154,-13.165 C 4.198,-13.124 0,-6.597 0,0"
             style="fill:#fff;fill-opacity:1;fill-rule:nonzero;stroke:none"
             id="path450" />
        </g>
        <g
           id="g452"
           transform="translate(165.5532,467.7842)">
          <path
             d="m 0,0 c 0,-11.177 -9.093,-20.271 -20.271,-20.271 h -0.444 c -11.177,0 -20.271,9.094 -20.271,20.271 V 23.321 H 0 Z m 0.731,28.275 h -4.023 l -2.674,-0.737 v -0.957 h -8.768 v 1.011 l -2.685,1.039 h -2.177 l -0.454,0.248 c 0.015,0.046 0.028,0.092 0.028,0.143 0,0.193 -0.12,0.356 -0.29,0.423 v 1.596 h -0.338 v -1.597 c -0.167,-0.067 -0.286,-0.23 -0.286,-0.422 0,-0.05 0.014,-0.096 0.028,-0.141 l -0.459,-0.25 h -2.279 l -2.557,-1.077 v -0.973 h -8.825 v 0.954 l -2.674,0.74 h -4.024 L -44.4,27.535 V 23.7 0 c 0,-13.06 10.625,-23.685 23.685,-23.685 h 0.444 C -7.211,-23.685 3.414,-13.06 3.414,0 V 26.083 H 3.405 v 1.449 z"
             style="fill:#fff;fill-opacity:1;fill-rule:nonzero;stroke:none"
             id="path454" />
        </g>
        <g
           id="g456"
           transform="translate(133.7256,458.4355)">
          <path
             d="m 0,0 1.574,-1.568 -0.406,-0.407 -0.569,0.568 -1.488,-1.492 -0.433,0.432 1.487,1.492 -0.57,0.568 z"
             style="fill:#fff;fill-opacity:1;fill-rule:nonzero;stroke:none"
             id="path458" />
        </g>
        <g
           id="g460"
           transform="translate(135.6289,453.9932)">
          <path
             d="M 0,0 C 0.427,-0.276 0.845,-0.118 1.091,0.261 1.357,0.673 1.246,1.127 0.883,1.363 0.51,1.604 0.059,1.514 -0.208,1.102 -0.458,0.716 -0.359,0.233 0,0 M 1.195,1.845 C 1.88,1.402 2.102,0.624 1.638,-0.093 1.196,-0.774 0.373,-0.926 -0.312,-0.482 -0.998,-0.038 -1.218,0.739 -0.754,1.456 -0.331,2.108 0.479,2.31 1.195,1.845"
             style="fill:#fff;fill-opacity:1;fill-rule:nonzero;stroke:none"
             id="path462" />
        </g>
        <g
           id="g464"
           transform="translate(138.5537,454.7617)">
          <path
             d="m 0,0 0.584,-0.197 0.425,-1.334 1.1,0.821 0.548,-0.184 -0.854,-2.542 -0.581,0.196 0.544,1.619 -1.04,-0.753 -0.085,0.028 -0.374,1.217 -0.541,-1.608 -0.58,0.195 z"
             style="fill:#fff;fill-opacity:1;fill-rule:nonzero;stroke:none"
             id="path466" />
        </g>
        <g
           id="g468"
           transform="translate(141.9092,453.0303)">
          <path
             d="M 0,0 C 0.052,0.41 0.424,0.727 0.955,0.66 1.298,0.617 1.556,0.468 1.702,0.269 L 1.318,-0.146 C 1.214,-0.021 1.134,0.059 0.937,0.083 0.769,0.104 0.661,0.041 0.646,-0.081 0.59,-0.522 1.714,-0.555 1.605,-1.421 1.547,-1.885 1.107,-2.154 0.595,-2.089 c -0.358,0.045 -0.753,0.249 -0.846,0.55 l 0.398,0.371 c 0.128,-0.213 0.348,-0.33 0.534,-0.353 0.16,-0.021 0.261,0.048 0.277,0.173 C 1.008,-0.948 -0.108,-0.858 0,0"
             style="fill:#fff;fill-opacity:1;fill-rule:nonzero;stroke:none"
             id="path470" />
        </g>
        <g
           id="g472"
           transform="translate(144.582,453.4888)">
          <path
             d="M 0,0 0.612,0.014 0.639,-1.153 1.489,0.034 2.224,0.051 1.246,-1.207 2.367,-2.626 1.59,-2.645 0.645,-1.39 0.674,-2.666 0.062,-2.68 Z"
             style="fill:#fff;fill-opacity:1;fill-rule:nonzero;stroke:none"
             id="path474" />
        </g>
        <g
           id="g476"
           transform="translate(147.5732,452.4595)">
          <path
             d="M 0,0 0.999,0.159 1.083,-0.371 0.084,-0.529 Z"
             style="fill:#fff;fill-opacity:1;fill-rule:nonzero;stroke:none"
             id="path478" />
        </g>
        <g
           id="g480"
           transform="translate(149.626,454.0942)">
          <path
             d="m 0,0 0.398,0.112 0.728,-2.58 -0.552,-0.156 -0.507,1.796 -0.208,-0.254 -0.416,0.375 z"
             style="fill:#fff;fill-opacity:1;fill-rule:nonzero;stroke:none"
             id="path482" />
        </g>
        <g
           id="g484"
           transform="translate(152.3447,453.4136)">
          <path
             d="M 0,0 C -0.156,-0.073 -0.267,-0.226 -0.186,-0.399 -0.123,-0.534 0.023,-0.611 0.252,-0.504 0.516,-0.381 0.521,-0.23 0.456,-0.1 0.372,0.072 0.208,0.097 0.042,0.019 Z m -0.202,0.54 c 0.163,0.076 0.181,0.228 0.132,0.335 -0.064,0.136 -0.192,0.173 -0.368,0.091 -0.181,-0.085 -0.21,-0.221 -0.157,-0.335 0.051,-0.108 0.178,-0.192 0.348,-0.112 z m -0.49,-1.302 c -0.153,0.326 -0.073,0.608 0.085,0.786 l -0.005,0.011 c -0.2,0.012 -0.442,0.129 -0.582,0.43 -0.178,0.382 0.062,0.811 0.516,1.023 C -0.223,1.7 0.263,1.61 0.44,1.229 0.551,0.992 0.529,0.704 0.36,0.494 L 0.365,0.483 C 0.604,0.527 0.892,0.416 1.039,0.101 1.253,-0.358 1.005,-0.786 0.498,-1.022 -0.009,-1.259 -0.5,-1.176 -0.692,-0.762"
             style="fill:#fff;fill-opacity:1;fill-rule:nonzero;stroke:none"
             id="path486" />
        </g>
        <g
           id="g488"
           transform="translate(153.0254,455.5454)">
          <path
             d="M 0,0 1.434,1.023 1.661,0.706 2.252,-1.686 1.741,-2.05 1.209,0.158 0.333,-0.467 Z"
             style="fill:#fff;fill-opacity:1;fill-rule:nonzero;stroke:none"
             id="path490" />
        </g>
        <g
           id="g492"
           transform="translate(156.6982,456.501)">
          <path
             d="M 0,0 C -0.121,-0.124 -0.17,-0.306 -0.034,-0.439 0.073,-0.544 0.237,-0.564 0.414,-0.384 0.617,-0.176 0.57,-0.033 0.462,0.067 0.323,0.198 0.161,0.164 0.032,0.033 Z m -0.378,0.435 c 0.126,0.128 0.089,0.276 0.004,0.359 C -0.48,0.899 -0.613,0.889 -0.75,0.75 -0.889,0.607 -0.868,0.47 -0.778,0.381 -0.693,0.298 -0.544,0.265 -0.413,0.399 Z M -0.38,-0.958 c -0.257,0.252 -0.282,0.544 -0.198,0.767 l -0.008,0.008 C -0.777,-0.241 -1.043,-0.217 -1.281,0.016 -1.582,0.311 -1.508,0.796 -1.157,1.154 -0.806,1.513 -0.32,1.6 -0.019,1.305 0.167,1.123 0.249,0.844 0.165,0.589 L 0.173,0.581 C 0.38,0.705 0.689,0.703 0.938,0.459 1.299,0.105 1.218,-0.383 0.827,-0.782 0.435,-1.182 -0.054,-1.277 -0.38,-0.958"
             style="fill:#fff;fill-opacity:1;fill-rule:nonzero;stroke:none"
             id="path494" />
        </g>
      </g>
    </g>
  </g>
</svg>
